<svg width="1198" height="253" viewBox="0 0 1198 253" fill="none" xmlns="http://www.w3.org/2000/svg">
<g clip-path="url(#clip0)">
<path d="M-323.984 339.488C-319.376 319.904 -299.024 305.504 -279.056 307.424C-262.928 308.96 -249.104 319.52 -235.664 328.352C-222.032 337.376 -205.712 345.248 -190.16 341.024C-180.176 338.336 -172.112 331.04 -165.2 323.552C-155.024 312.608 -145.808 300.512 -138.128 287.648C-133.904 280.544 -129.872 273.056 -123.728 267.488C-117.584 261.92 -108.56 258.656 -100.88 261.728C-93.0079 264.8 -88.9759 273.248 -83.0239 279.2C-73.4239 288.8 -58.8319 291.68 -45.5839 289.184C-32.3359 286.688 -20.6239 279.2 -10.4479 270.176C6.44808 255.008 19.6961 232.736 14.8961 210.464C10.8641 191.84 -5.26389 177.824 -12.9439 159.968C-20.8159 141.152 -18.3199 118.496 -6.41591 101.984C4.52809 86.6242 22.5761 76.8322 30.6401 59.7442C35.6321 49.1842 36.0161 36.8962 35.2481 25.1842C33.1361 -13.9838 18.3521 -51.9998 -5.8399 -82.5278" stroke="#C6D2E1" stroke-opacity="0.21" stroke-miterlimit="10"/>
<path d="M1041.52 -10.144C1026.16 3.67996 1014.06 21.536 1005.42 40.352C1003.7 44.192 1001.97 48.224 1000.43 52.256C994.48 67.424 990.256 83.936 990.448 100.256C990.448 103.136 990.64 106.208 991.024 109.088C992.176 119.264 995.44 129.056 1000.24 138.272C1000.62 139.04 1001.2 139.808 1001.58 140.768C1010.99 157.088 1025.01 171.296 1034.42 186.272C1040.37 195.488 1043.63 204.512 1049.39 211.616C1059.18 223.712 1073.97 231.392 1090.48 234.848C1096.24 236 1102.38 236.384 1108.53 236C1119.28 235.424 1131.38 232.928 1141.55 238.496C1152.69 244.64 1156.53 259.04 1155.18 271.328C1153.84 283.424 1148.85 294.56 1146.54 306.656C1146.16 308.576 1145.97 310.304 1145.78 312.224C1144.62 322.784 1145.97 334.112 1151.34 343.136C1154.03 347.552 1157.49 351.392 1161.71 354.272C1176.88 364.448 1198.19 361.184 1216.62 361.952C1225.26 362.336 1233.52 363.68 1240.43 368.288C1243.89 370.592 1246.77 373.472 1249.26 376.736C1254.83 384.416 1257.33 394.4 1258.48 404C1259.82 414.368 1259.82 424.736 1262.32 434.336C1263.09 437.408 1264.05 440.288 1265.39 443.168C1275.95 467.552 1305.9 478.688 1335.28 486.56C1352.94 491.36 1369.07 497.12 1385.78 501.92C1398.83 505.568 1412.27 508.64 1425.9 512.288C1440.5 516.128 1455.66 520.736 1469.68 526.496C1485.42 533.024 1500.02 541.28 1509.23 555.296" stroke="#C6D2E1" stroke-opacity="0.21" stroke-miterlimit="10"/>
<path d="M945.136 -58.5281C919.6 -39.9041 903.088 -10.7201 894.064 19.6159C892.144 25.9519 890.608 32.2879 889.264 38.6239C884.272 63.0079 882.736 88.1599 882.928 113.312C882.928 117.728 882.928 122.336 883.312 126.752C884.08 142.496 886.384 158.048 893.104 172.064C893.68 173.408 894.256 174.56 895.024 175.904C908.464 201.056 934 221.024 939.568 247.904C943.024 264.608 937.264 280.352 935.728 295.904C934 312.416 937.456 330.656 950.704 343.136C955.312 347.552 961.072 350.816 967.216 353.312C978.544 357.92 991.6 360.416 1002.54 367.712C1014.06 375.392 1020.98 388.064 1024.82 400.736C1028.66 413.216 1029.81 426.08 1031.54 439.328C1031.73 441.44 1032.11 443.36 1032.3 445.472C1034.03 456.8 1036.53 468.704 1043.44 477.92C1046.9 482.528 1051.12 485.984 1056.11 488.672C1073.2 497.888 1096.24 495.008 1116.02 492.512C1125.23 491.36 1134.45 490.4 1142.9 492.128C1147.31 492.896 1151.34 494.432 1155.38 496.544C1164.59 501.536 1170.93 510.176 1176.69 519.008C1182.83 528.416 1188.59 538.208 1196.66 544.928C1199.34 547.04 1202.03 548.96 1204.91 550.496C1229.3 563.36 1263.66 552.608 1295.15 562.016C1316.85 568.544 1332.21 585.248 1349.1 598.688C1362.35 609.056 1377.33 617.888 1393.26 625.184C1410.35 632.864 1428.98 639.008 1447.41 643.04C1467.95 647.648 1489.26 650.144 1505.01 663.584" stroke="#C6D2E1" stroke-opacity="0.21" stroke-miterlimit="10"/>
<path d="M305.584 1099.62C286.384 1081.76 285.04 1051.23 291.568 1025.5C298.096 999.776 310.768 975.776 315.184 950.048C317.296 937.568 318.448 923.168 322.288 911.072C325.744 899.936 331.504 890.72 342.256 886.304C349.36 883.424 357.616 883.424 364.72 880.352C383.92 871.52 383.92 846.944 386.224 825.056C386.608 822.176 386.8 819.296 387.376 816.416C391.216 792.416 405.616 770.528 408.112 746.336C410.416 724.832 404.464 704.096 399.472 683.168C397.36 674.528 395.248 665.504 394.096 656.48C392.944 647.072 392.944 638.048 394.48 629.408C395.44 623.84 396.976 618.464 398.704 613.472C406 590.624 419.248 569.312 432.688 547.424C440.368 534.944 448.24 522.464 454.768 508.64C459.952 497.696 464.176 486.368 466.672 474.464C468.592 466.208 468.592 457.76 468.016 449.504C467.44 440.288 465.904 431.072 465.328 421.856C464.944 414.176 464.944 407.456 467.056 400.544C468.208 396.896 470.32 394.016 471.856 390.752C473.2 387.872 474.352 384.8 474.16 380.768C473.2 367.904 467.824 355.424 462.448 343.52C453.424 323.36 444.592 303.2 435.76 283.04C431.536 273.248 427.12 263.456 422.896 253.664C416.176 238.496 409.648 223.328 402.928 208.16C399.472 200.288 395.824 191.84 396.4 183.392C396.784 177.44 398.896 172.064 401.584 166.688C403.888 161.888 406.384 157.28 408.304 152.288C408.496 151.904 408.688 151.328 408.688 150.944C410.416 146.144 411.376 141.152 412.336 136.352C414.064 127.136 415.024 117.92 419.44 110.24C427.504 96.0321 445.168 89.5041 462.064 88.5441C478.768 87.7761 495.664 90.4641 512.56 86.4321C514.288 86.0481 516.208 85.4721 517.936 84.8961C521.968 83.3601 525.616 81.4401 528.496 79.3281C530.416 77.9841 532.144 76.6401 533.68 75.1041C536.752 72.2241 540.016 68.9601 543.088 65.3121C553.456 53.0241 561.52 37.4721 568.432 20.0001C578.8 -6.30391 587.248 -35.8719 590.704 -63.7119" stroke="#C6D2E1" stroke-opacity="0.21" stroke-miterlimit="10"/>
<path d="M369.328 1093.28C354.928 1075.81 353.776 1049.5 359.152 1026.85C364.72 1004.19 375.664 982.688 382.192 960.992C385.456 950.432 388.336 938.912 393.136 929.12C397.36 920.288 403.312 912.992 412.528 908.768C418.864 905.888 425.776 905.312 431.92 902.24C448.816 893.984 452.464 875.168 456.688 856.544C457.264 854.048 457.84 851.552 458.416 849.248C463.408 828.512 473.584 808.544 475.888 787.04C478.192 764.384 475.12 741.92 472.432 719.456C471.472 710.624 469.168 700.64 468.4 690.848C467.632 680.672 468.4 670.88 472.432 663.008C475.12 657.824 478.576 654.368 482.032 650.912C496.048 636.32 517.168 623.84 536.176 607.136C547.312 597.536 557.68 586.208 565.168 571.424C570.928 559.904 574.384 547.424 575.728 534.752C576.688 525.92 575.92 516.896 574.192 508.256C572.464 498.656 569.776 489.248 567.472 480.032C565.744 472.352 564.016 465.44 564.016 458.528C564.016 454.688 564.592 451.616 564.784 448.16C564.976 445.088 564.976 441.824 564.016 437.792C560.752 424.736 554.608 411.872 548.656 399.392C538.672 378.272 529.072 356.768 519.472 335.456C514.864 325.088 510.256 314.72 505.456 304.352C498.16 288.224 491.056 272.288 483.76 256.16C479.92 247.712 476.272 239.072 475.12 230.432C474.352 224.288 474.736 218.528 475.504 212.768C476.08 207.584 476.848 202.4 478.192 196.832C478.384 196.448 478.384 195.872 478.576 195.488C479.92 190.304 481.84 185.12 483.76 180.32C487.6 170.72 491.44 162.656 497.584 156.512C508.912 145.184 527.536 142.112 545.584 144.992C567.856 148.64 589.744 156.128 612.976 147.872C615.28 147.104 617.584 145.952 619.696 144.608C624.688 141.344 628.144 136.928 628.912 132.512C629.488 129.632 628.912 127.52 628.72 124.832C628.528 120.032 629.296 114.272 630.256 108.32C632.944 87.968 634.096 64.928 638.512 40.352C645.424 2.71999 660.592 -35.68 672.88 -71.968" stroke="#C6D2E1" stroke-opacity="0.21" stroke-miterlimit="10"/>
<path d="M475.696 1082.72C468.976 1066.02 468.4 1046.82 472.24 1028.96C476.08 1011.1 484.144 994.016 494.32 979.04C499.504 971.552 505.264 964.64 511.984 958.688C517.552 953.696 523.696 949.472 530.608 945.824C535.408 943.328 540.208 941.216 545.008 938.528C557.872 931.424 568.048 921.824 575.152 909.152C576.112 907.424 577.072 905.696 577.84 903.776C584.944 888.608 588.016 871.52 589.552 854.624C591.856 829.664 593.392 804.704 594.928 779.936C595.504 771.104 593.392 759.392 593.2 748.064C593.008 736.544 594.928 725.792 603.184 719.072C608.368 714.848 615.28 714.08 621.808 713.504C646 711.584 681.136 715.04 709.936 706.592C726.832 701.792 741.424 692.768 750.448 675.872C757.168 663.392 759.28 649.184 758.512 634.976C757.936 625.184 755.632 615.392 752.56 606.368C748.912 596.192 744.304 586.4 739.12 576.992C735.088 569.504 730.864 562.208 726.832 554.912C724.72 551.072 722.8 547.232 720.688 543.392C718.768 539.936 717.04 536.288 714.928 532.64C707.824 519.392 700.336 505.76 693.424 492.128C681.712 469.28 670.96 445.856 660.016 422.624C654.832 411.296 649.456 399.968 644.272 388.832C636.208 371.36 627.952 353.696 619.888 336.224C615.664 327.008 611.44 317.792 607.6 308.768C604.912 302.24 602.416 295.904 600.112 289.568C598 283.808 595.696 277.664 596.272 271.328C596.272 270.752 596.464 270.176 596.464 269.792C597.424 264.032 600.496 258.656 604.144 254.048C611.824 244.064 620.08 237.92 628.912 234.272C646 227.744 665.776 231.392 685.744 239.264C717.04 251.744 747.76 265.952 781.36 250.4C784.624 248.864 787.696 246.752 790.192 244.064C796.528 237.92 799.984 229.088 797.296 221.408C795.568 216.224 791.536 212.576 788.272 208.16C782.32 200.096 779.248 190.112 776.368 180.32C766.192 146.336 755.632 111.392 756.016 74.912C756.592 18.272 783.664 -34.912 810.544 -84.832" stroke="#C6D2E1" stroke-opacity="0.21" stroke-miterlimit="10"/>
<path d="M135.856 129.44C153.712 107.936 173.68 87.584 197.872 73.376C218.032 61.4721 241.456 54.176 264.496 55.328C269.104 55.52 273.712 56.096 278.128 57.056C305.392 62.816 329.776 83.552 336.304 110.24C344.176 142.88 327.088 173.408 316.528 204.512C310.576 221.6 307.504 240.032 306.928 258.272C306.544 271.52 307.696 284.768 310.192 297.632C317.872 335.84 343.6 366.368 346.864 406.688C348.784 429.92 344.368 484.64 335.728 543.584C329.584 585.248 321.712 628.832 311.92 664.928C300.016 708.128 286 740.192 271.216 741.92C255.856 743.648 245.488 727.52 238.576 714.272C229.552 697.184 222.832 678.176 213.04 660.32C209.968 654.752 206.704 649.376 203.056 644.192C185.008 619.232 158.32 601.376 131.632 585.824C114.544 575.84 96.4962 567.776 77.6802 562.592C72.3042 561.056 66.7363 559.712 61.1683 558.752C47.1523 556.256 31.7922 555.296 21.4242 545.888C13.7442 538.976 11.2482 528.416 6.83225 519.392C-2.38375 500 -20.0477 484.64 -39.4397 478.688C-49.8077 475.424 -60.1757 474.656 -70.1597 471.776C-87.2477 466.976 -111.056 454.304 -122 439.904C-132.176 426.272 -123.92 398.048 -117.008 382.88C-115.664 380 -114.32 377.12 -111.824 375.008C-105.488 369.824 -95.8877 372.128 -87.4397 372.32C-68.8157 372.704 -55.9517 361.76 -40.7837 353.312C-37.9037 351.776 -34.8317 350.24 -31.7597 348.704C-17.5517 342.176 -2.57575 336.992 10.6722 328.16C33.5202 312.992 51.5683 292.064 66.7363 269.6C74.4163 258.08 81.3282 246.176 87.6642 234.272C91.5042 226.976 94.7682 219.488 97.8402 211.808C109.36 183.008 116.848 152.48 135.856 129.44Z" stroke="#C6D2E1" stroke-opacity="0.21" stroke-miterlimit="10"/>
<path d="M1127.73 -13.6001C1113.71 3.1039 1103.73 31.3279 1100.27 52.6399C1097.01 72.7999 1100.46 95.0719 1114.48 110.048C1126.77 123.296 1144.82 128.864 1161.52 135.2C1185.9 144.608 1210.1 157.28 1226.42 177.824C1236.98 191.264 1243.7 208.544 1243.31 225.824C1242.93 240.992 1223.92 255.584 1234.67 270.56C1239.28 276.896 1246.77 280.352 1254.45 282.08C1261.94 284 1269.81 284.384 1277.3 286.496C1325.49 299.168 1300.91 346.592 1324.34 376.352C1332.59 386.912 1346.99 389.6 1360.24 391.328C1385.78 394.4 1411.5 395.936 1437.23 395.552" stroke="#C6D2E1" stroke-opacity="0.21" stroke-miterlimit="10"/>
<path d="M1086.83 20C1079.15 32.288 1070.13 44 1065.33 57.632C1056.5 82.016 1062.06 110.24 1077.23 131.36C1092.4 152.288 1116.4 166.112 1141.74 171.104C1147.5 172.256 1153.46 172.832 1158.83 170.72C1164.21 168.416 1168.24 162.272 1166.51 156.896C1159.22 135.392 1126.19 135.008 1110.26 122.72C1077.42 97.376 1077.81 35.936 1097.97 3.48804" stroke="#C6D2E1" stroke-opacity="0.21" stroke-miterlimit="10"/>
<path d="M345.712 252.704C349.744 274.784 361.264 294.56 371.248 314.72C396.208 364.832 411.568 423.968 392.944 476.768C391.792 479.84 390.64 483.104 391.024 486.368C391.6 489.632 394.48 492.896 397.744 492.32C399.472 491.936 400.816 490.784 401.968 489.632C411.952 479.072 414.832 463.712 414.448 449.312C414.064 434.912 410.992 420.512 410.8 406.112C410.608 378.656 421.36 351.008 414.832 324.32C408.112 297.632 385.072 277.664 377.008 251.36C373.936 241.376 372.592 195.296 358.96 195.104C341.104 194.912 343.984 243.104 345.712 252.704Z" stroke="#C6D2E1" stroke-opacity="0.21" stroke-miterlimit="10"/>
<path d="M36.0161 -88.6719C64.6241 -41.4399 67.6961 20.3841 43.8881 70.3041C33.9041 91.2321 19.6961 110.048 12.5921 132.128C5.4881 154.208 8.3681 181.856 27.1841 195.488C28.3361 196.448 29.6801 197.216 31.2161 197.408C34.4801 197.792 37.1681 195.296 39.2801 192.8C50.8001 178.976 54.6401 160.544 60.2081 143.456C66.5441 124.256 75.5681 106.016 87.0881 89.3121C106.672 60.7041 132.784 37.0881 153.904 9.24812C175.024 -18.5919 190.96 -52.7679 185.584 -87.1359" stroke="#C6D2E1" stroke-opacity="0.21" stroke-miterlimit="10"/>
<path d="M79.0239 -67.3601C87.0879 -39.3281 87.4719 -9.18409 80.1759 19.0399C68.8479 63.1999 39.6639 101.6 31.0239 146.528C30.2559 150.56 32.1759 156.704 35.8239 154.976C36.9759 154.4 37.5519 153.248 38.1279 152.288C51.7599 126.752 59.0559 97.9519 75.7599 74.3359C85.3599 61.2799 97.4559 50.1439 107.44 37.4719C131.632 6.75191 142.576 -34.1441 137.2 -72.7361" stroke="#C6D2E1" stroke-opacity="0.21" stroke-miterlimit="10"/>
<path d="M395.632 -31.072C384.496 -11.68 377.968 10.208 376.624 32.48C376.24 37.664 376.24 43.232 378.928 47.648C381.616 52.448 386.8 55.328 391.792 57.44C400.432 61.088 410.416 63.584 419.248 60.32C424.24 58.4 428.464 54.944 433.456 52.832C449.776 45.92 470.128 56.672 486.064 48.608C494.32 44.384 499.696 35.936 503.152 27.488C505.648 21.344 507.568 14.816 507.184 8.28798C506.8 1.75998 503.728 -4.96002 498.16 -8.60802" stroke="#C6D2E1" stroke-opacity="0.21" stroke-miterlimit="10"/>
</g>
<defs>
<clipPath id="clip0">
<rect width="1198" height="253" fill="white"/>
</clipPath>
</defs>
</svg>
