<svg width="450" height="517" viewBox="0 0 450 517" fill="none" xmlns="http://www.w3.org/2000/svg">
<path d="M0 139.91V371.74C0 380.31 4.57 388.24 12 392.52L212.77 508.43C220.2 512.72 229.34 512.72 236.77 508.43L437.54 392.52C444.97 388.23 449.54 380.31 449.54 371.74V139.91C449.54 131.34 444.97 123.41 437.54 119.13L236.77 3.22C229.34 -1.07 220.2 -1.07 212.77 3.22L12 119.13C4.57 123.42 0 131.34 0 139.91Z" fill="#00DB12"/>
<path d="M234.48 412.59C231.29 412.79 228.05 412.9 224.77 412.9C139.1 412.9 69.66 343.45 69.66 257.79C69.66 172.13 139.11 102.68 224.77 102.68C292.98 102.68 347.71 150.61 369.3 202.15C369.3 202.15 375.65 210.15 384.26 206.38C393.74 202.23 391.78 190.4 391.78 190.4C365.1 124.37 300.4 77.78 224.81 77.78C125.4 77.78 44.81 158.37 44.81 257.78C44.81 357.19 125.4 437.78 224.81 437.78C324.22 437.78 404.81 357.19 404.81 257.78C404.81 253.85 404.93 253.81 404.68 249.94C404.68 249.94 396.28 252.77 379.87 257.78C338.62 270.37 295.78 293.73 261.41 343.1C222.69 398.72 224.76 511.65 224.76 511.65" stroke="white" stroke-width="9" stroke-miterlimit="10" stroke-linecap="round" stroke-linejoin="round"/>
<path d="M379.88 257.78C377.53 315.67 339.67 393.99 260.11 409.33C260.11 409.33 275.29 344.7 323.7 312.7" stroke="white" stroke-width="9" stroke-miterlimit="10" stroke-linecap="round" stroke-linejoin="round"/>
</svg>
