<svg width="450" height="669" viewBox="0 0 450 669" fill="none" xmlns="http://www.w3.org/2000/svg">
<path d="M0 139.908V371.737C0 380.307 4.57 388.237 12 392.517L132 485L212.77 665C220.2 669.29 229.34 669.29 236.77 665L324 485L437.54 392.517C444.97 388.227 449.54 380.307 449.54 371.737V139.908C449.54 131.338 444.97 123.407 437.54 119.127L236.77 3.2175C229.34 -1.0725 220.2 -1.0725 212.77 3.2175L12 119.127C4.57 123.417 0 131.338 0 139.908Z" fill="#00DB12"/>
<path d="M234.48 412.587C231.29 412.787 228.05 412.897 224.77 412.897C139.1 412.897 69.66 343.448 69.66 257.788C69.66 172.128 139.11 102.677 224.77 102.677C292.98 102.677 347.71 150.607 369.3 202.147C369.3 202.147 375.65 210.148 384.26 206.378C393.74 202.228 391.78 190.397 391.78 190.397C365.1 124.367 300.4 77.7775 224.81 77.7775C125.4 77.7775 44.81 158.367 44.81 257.777C44.81 357.188 125.4 437.777 224.81 437.777C324.22 437.777 404.81 357.188 404.81 257.777C404.81 253.847 404.93 253.807 404.68 249.938C404.68 249.938 396.28 252.767 379.87 257.777C338.62 270.367 295.78 293.728 261.41 343.098C222.69 398.718 224.76 511.647 224.76 511.647C224.8 635.929 224.76 656.667 224.76 658.5" stroke="white" stroke-width="9" stroke-miterlimit="10" stroke-linecap="round" stroke-linejoin="round"/>
<path d="M379.88 257.777C377.53 315.667 339.67 393.987 260.11 409.327C260.11 409.327 275.29 344.698 323.7 312.698" stroke="white" stroke-width="9" stroke-miterlimit="10" stroke-linecap="round" stroke-linejoin="round"/>
</svg>
